<mxfile host="app.diagrams.net" modified="2024-06-14T12:31:39.104Z" agent="Mozilla/5.0 (Windows NT 10.0; Win64; x64) AppleWebKit/537.36 (KHTML, like Gecko) Chrome/125.0.0.0 Safari/537.36" version="24.5.4" etag="bkb1aT7ICIfNr4ELDCnU" type="github">
  <diagram name="Page-1" id="2dv1mxT9ZeCHYtNHhxUj">
    <mxGraphModel>
      <root>
        <mxCell id="0" />
        <mxCell id="1" parent="0" />
      </root>
    </mxGraphModel>
  </diagram>
</mxfile>
